<svg xmlns="http://www.w3.org/2000/svg" width="266" height="40" viewBox="0 0 266 40">
    <rect x="0" y="0" width="100%" height="100%" fill="white"/>
    <path fill="#76232F" fill-rule="evenodd" d="M47.688 10.188C42.818 10.188 40 12.92 40 17.3c0 4.381 2.819 7.115 7.688 7.115 4.868 0 7.687-2.734 7.687-7.115 0-4.38-2.82-7.11-7.687-7.11zm0 3.3c1.99 0 2.13 2.378 2.13 3.811 0 1.435-.14 3.812-2.13 3.812-1.991 0-2.13-2.377-2.13-3.812 0-1.433.139-3.81 2.13-3.81zm14.35-3.064h-5.283v13.75h5.283v-5.833h.078l3.39 5.833h6.309l-5.087-7.307 4.653-6.443h-6.013l-3.252 5.403h-.078v-5.403zm21.524 9.784c-1.419.45-2.208.53-2.72.53-3.311 0-3.824-2.28-3.824-3.557 0-1.984 1.479-3.457 3.725-3.457 1.065 0 2.01.236 2.78.531V10.62l-.316-.058c-.63-.118-1.793-.374-3.37-.374-6.15 0-8.378 3.575-8.378 7.111 0 4.146 2.898 7.115 8.24 7.115 1.005 0 2.267-.117 3.863-.553v-3.653zm12.891 4.206V22.21h.809c3.527 0 6.011-1.867 6.011-5.324 0-3.025-2.03-5.324-5.992-5.324h-.828V9.5h-5.282v2.063h-.828c-3.962 0-5.992 2.299-5.992 5.324 0 3.457 2.483 5.324 6.012 5.324h.808v2.203h5.282zm-.236-9.708h.295c1.084 0 1.833.884 1.833 2.181 0 1.296-.768 2.18-1.813 2.18h-.315v-4.36zm-4.81 0v4.361h-.316c-1.045 0-1.813-.884-1.813-2.18 0-1.297.75-2.18 1.833-2.18h.296zm20.342-4.518c-4.868 0-7.687 2.731-7.687 7.111 0 4.381 2.819 7.115 7.687 7.115 4.869 0 7.688-2.734 7.688-7.115 0-4.38-2.82-7.11-7.688-7.11zm0 3.3c1.99 0 2.129 2.378 2.129 3.811 0 1.435-.138 3.812-2.13 3.812-1.99 0-2.129-2.377-2.129-3.812 0-1.433.139-3.81 2.13-3.81zm9.067-3.064v13.75h5.282v-3.966h2.898c4.297 0 5.873-2.652 5.873-4.853 0-2.515-1.812-4.931-5.972-4.931h-8.081zm5.144 3.183h1.143c2.011 0 2.445.903 2.445 1.709 0 1.67-1.794 1.709-2.425 1.709h-1.163v-3.418zm11.65-3.183v4.4c0 1.69-.02 3.812-1.893 5.678h-1.064v6.721h5.283v-3.049h6.129v3.05h5.283v-6.722h-1.458V10.424h-12.28zm6.997 3.536v6.542h-3.706c1.144-1.513 1.361-3.045 1.361-4.872v-1.67h2.345zm19.633 6.248c-1.42.45-2.209.53-2.721.53-3.312 0-3.824-2.28-3.824-3.557 0-1.984 1.477-3.457 3.726-3.457 1.064 0 2.01.236 2.779.531V10.62l-.316-.058c-.63-.118-1.793-.374-3.37-.374-6.15 0-8.377 3.575-8.377 7.111 0 4.146 2.897 7.115 8.239 7.115 1.006 0 2.267-.117 3.864-.553v-3.653zm.59-9.784v4.067h4.653v9.683h5.281v-9.683h4.653v-4.067H164.83zm15.77 0v13.75h5.283v-3.966h2.897c4.297 0 5.874-2.652 5.874-4.853 0-2.515-1.814-4.931-5.972-4.931h-8.083zm5.144 3.183h1.143c2.01 0 2.445.903 2.445 1.709 0 1.67-1.795 1.709-2.425 1.709h-1.163v-3.418zm10.467-3.183v13.75h6.169l3.49-7.699h.078v7.7h5.283V10.423h-6.17l-3.488 7.858h-.08v-7.858h-5.282zm16.202 0v4.067h4.652v9.683h5.283v-9.683H227v-4.067h-14.587zm-58.422 16.094c-.953 0-1.585.612-1.585 1.568 0 .954.668 1.525 1.536 1.525.796 0 1.567-.498 1.567-1.58 0-.89-.608-1.513-1.518-1.513zm-.024.654c.418 0 .589.448.589.889 0 .532-.232.89-.589.89-.395 0-.608-.382-.608-.89 0-.435.165-.89.608-.89zm3.432-.587v.726c0 .327-.049.659-.134.968-.067.218-.17.43-.297.61l-.273.025.024 1.586h.698l.037-.957h1.876l.03.957h.691l.043-1.592-.328-.018v-2.305h-2.367zm.801.671h.668v1.616h-.984a1.94 1.94 0 0 0 .207-.502c.066-.255.11-.52.11-.77v-.344zm5.933 1.1c.012-.065.03-.205.03-.361 0-.733-.364-1.477-1.323-1.477-1.03 0-1.498.83-1.498 1.58 0 .924.576 1.513 1.583 1.513.4 0 .771-.068 1.074-.189l-.12-.623c-.25.079-.504.12-.82.12-.431 0-.807-.181-.838-.562h1.912zm-1.918-.628c.025-.248.183-.598.571-.598.425 0 .522.374.522.598h-1.093zm3.063-1.143l1.032 1.276c-.335.06-.553.381-.687.756-.121.328-.224.648-.365.926h.912c.085-.151.152-.369.26-.677.122-.334.292-.503.56-.503h.072v1.18h.892v-1.18h.073c.243 0 .43.175.546.503.097.296.17.533.255.677h.923c-.134-.272-.231-.598-.352-.932-.127-.363-.359-.69-.692-.75l1.032-1.276h-1.02l-.674 1.185h-.09v-1.185h-.893v1.185h-.098l-.667-1.185h-1.02zm6.157 0v.726c0 .327-.048.659-.133.968-.067.218-.17.43-.297.61l-.274.025.024 1.586h.698l.037-.957h1.876l.03.957h.692l.042-1.592-.328-.018v-2.305h-2.367zm.802.671h.667v1.616h-.984c.092-.152.165-.334.207-.502.067-.255.11-.52.11-.77v-.344zm5.787.54c0-.697-.316-1.278-1.305-1.278-.54 0-.947.146-1.153.26l.17.593c.194-.12.516-.223.82-.223.455 0 .539.223.539.38v.043c-1.05-.006-1.742.363-1.742 1.131 0 .472.358.909.959.909.352 0 .656-.129.85-.364h.018l.055.296h.832a4.485 4.485 0 0 1-.043-.72v-1.028zm-.898.67a.659.659 0 0 1-.018.157.505.505 0 0 1-.48.34c-.207 0-.364-.115-.364-.352 0-.357.376-.472.862-.466v.322zm4.172-1.881v.726c0 .327-.048.659-.133.968a2.19 2.19 0 0 1-.297.61l-.274.025.024 1.586h.7l.035-.957h1.876l.03.957h.692l.043-1.592-.328-.018v-2.305h-2.368zm.802.671h.668v1.616h-.983c.09-.152.163-.334.206-.502.066-.255.109-.52.109-.77v-.344zm3.468-.671v1.197c0 .503-.024.781-.194.95-.067.079-.194.134-.327.164l.097.708c.412 0 .674-.085.862-.284.333-.267.418-.776.418-1.489v-.545h.644v2.257h.923v-2.958h-2.423zm6.704.018a8.712 8.712 0 0 0-1.135-.067c-.406 0-.819.043-1.092.176-.297.14-.503.35-.503.72 0 .472.43.695.764.731v.02a.728.728 0 0 0-.376.217c-.188.2-.321.58-.42.816a1.52 1.52 0 0 1-.18.327h.982c.048-.097.08-.157.115-.242.092-.23.165-.508.322-.659a.514.514 0 0 1 .425-.212h.188v1.113h.91v-2.94zm-.91 1.264c-.079 0-.158.006-.303.006-.273 0-.564-.127-.564-.387 0-.267.254-.381.551-.381.146 0 .237.012.316.025v.737zm3.433-1.282l1.032 1.276c-.334.06-.553.381-.687.756-.12.328-.224.648-.365.926h.912c.085-.151.152-.369.261-.677.121-.334.291-.503.559-.503h.073v1.18h.892v-1.18h.073c.242 0 .43.175.545.503.097.296.17.533.256.677h.923c-.135-.272-.232-.598-.353-.932-.127-.363-.358-.69-.692-.75l1.033-1.276h-1.02l-.674 1.185h-.091v-1.185h-.892v1.185h-.097l-.668-1.185h-1.02zm8.386 1.772c.012-.066.03-.206.03-.362 0-.733-.365-1.477-1.324-1.477-1.032 0-1.5.83-1.5 1.58 0 .924.577 1.513 1.585 1.513.4 0 .771-.068 1.074-.189l-.12-.623c-.25.079-.504.12-.82.12-.431 0-.807-.181-.838-.562h1.913zm-1.918-.629c.024-.248.18-.598.57-.598.425 0 .522.374.522.598h-1.092zm3.42-1.143v2.958h.922V28.37h.935v1.173h.928v-2.958h-.928v1.07h-.935v-1.07h-.923zm4.44 0v2.958h3.769l.03.957h.692l.042-1.592-.327-.018v-2.305h-.917v2.256h-.728v-2.256h-.917v2.256h-.728v-2.256h-.916zm5.939 0v2.958h1.123c.206-.46.43-.968.619-1.386.12-.278.194-.472.309-.798h.025c-.031.63-.055.823-.055 1.283v.901h.874v-2.958h-1.128l-.577 1.27c-.122.278-.201.508-.34.847l-.024-.006c.024-.399.048-.732.048-1.203v-.908h-.874zm4.548 0v2.958h.923V28.37h.935v1.173h.93v-2.958h-.93v1.07h-.935v-1.07h-.923z"/>
</svg>
