<svg xmlns="http://www.w3.org/2000/svg" viewBox="0 0 600 380" role="img" aria-label="Фиалка. Аптека.">
  <rect x="0" y="0" width="600" height="380" fill="#191919"/>
  <rect x="6" y="6" width="588" height="368" fill="none" stroke="#3a3a3a" stroke-width="2" rx="10"/>
  <text text-anchor="middle" font-family="'Century Gothic','Futura','Trebuchet MS',sans-serif" font-weight="300" font-size="48.0" letter-spacing="4.3" fill="#ffffff"><tspan x="300.0" y="92.0">ФИАЛКА.</tspan><tspan x="300.0" y="152.5">АПТЕКА.</tspan></text>
  <line x1="179.0" y1="171.7" x2="421.0" y2="171.7" stroke="#ffffff" stroke-width="2"/>
  <g transform="translate(225.0,195.7) scale(0.3750)" fill="#8b9096"><path d="M 365.00,200.00 C 363.49,202.87 359.22,211.76 355.91,217.21 C 352.61,222.67 348.99,227.88 345.18,232.71 C 341.38,237.55 337.29,242.08 333.08,246.21 C 328.88,250.34 324.43,254.12 319.94,257.48 C 315.45,260.83 310.79,263.80 306.14,266.35 C 301.50,268.89 296.74,271.02 292.07,272.74 C 287.41,274.46 282.70,275.75 278.14,276.65 C 273.59,277.55 269.06,278.03 264.74,278.16 C 260.42,278.29 256.20,278.01 252.23,277.43 C 248.26,276.85 244.44,275.88 240.92,274.68 C 237.39,273.47 234.07,271.93 231.05,270.20 C 228.04,268.47 225.28,266.45 222.82,264.30 C 220.36,262.16 218.19,259.78 216.31,257.33 C 214.43,254.89 212.86,252.26 211.56,249.62 C 210.26,246.99 209.26,244.23 208.51,241.50 C 207.76,238.78 207.31,234.63 207.07,233.26 C 208.55,234.25 212.86,237.46 215.98,239.24 C 219.10,241.02 222.41,242.60 225.78,243.95 C 229.14,245.31 232.65,246.44 236.18,247.37 C 239.70,248.30 243.33,249.01 246.93,249.52 C 250.54,250.04 254.20,250.34 257.83,250.47 C 261.46,250.61 265.10,250.53 268.70,250.31 C 272.30,250.09 275.88,249.69 279.42,249.15 C 282.95,248.61 286.46,247.90 289.91,247.07 C 293.37,246.25 296.78,245.27 300.15,244.17 C 303.52,243.08 306.84,241.85 310.13,240.50 C 313.42,239.14 316.66,237.67 319.87,236.05 C 323.08,234.44 326.25,232.71 329.39,230.81 C 332.52,228.92 335.63,226.91 338.69,224.71 C 341.76,222.51 344.79,220.17 347.77,217.63 C 350.76,215.08 353.71,212.38 356.58,209.44 C 359.45,206.50 363.60,201.57 365.00,200.00 Z"/><path d="M 282.50,342.89 C 279.26,343.02 269.42,343.77 263.05,343.63 C 256.68,343.50 250.35,342.97 244.26,342.09 C 238.17,341.21 232.20,339.94 226.52,338.36 C 220.84,336.78 215.35,334.82 210.20,332.61 C 205.04,330.40 200.14,327.85 195.61,325.10 C 191.09,322.34 186.86,319.29 183.04,316.11 C 179.22,312.92 175.75,309.49 172.69,306.00 C 169.63,302.50 166.95,298.82 164.68,295.15 C 162.41,291.47 160.54,287.67 159.06,283.94 C 157.58,280.22 156.50,276.43 155.78,272.77 C 155.06,269.12 154.74,265.47 154.73,261.99 C 154.72,258.52 155.09,255.11 155.72,251.91 C 156.35,248.71 157.32,245.64 158.50,242.79 C 159.69,239.94 161.17,237.27 162.80,234.82 C 164.44,232.38 166.32,230.14 168.31,228.12 C 170.30,226.11 173.66,223.65 174.73,222.75 C 174.61,224.54 173.99,229.87 174.01,233.46 C 174.02,237.05 174.31,240.71 174.82,244.30 C 175.33,247.89 176.10,251.50 177.06,255.02 C 178.02,258.54 179.22,262.03 180.58,265.41 C 181.93,268.79 183.50,272.11 185.20,275.32 C 186.90,278.53 188.79,281.65 190.78,284.65 C 192.77,287.66 194.91,290.56 197.15,293.35 C 199.38,296.14 201.74,298.83 204.19,301.40 C 206.63,303.98 209.18,306.45 211.82,308.82 C 214.45,311.19 217.18,313.45 219.99,315.62 C 222.81,317.79 225.71,319.86 228.71,321.84 C 231.71,323.81 234.80,325.69 238.01,327.46 C 241.21,329.23 244.51,330.91 247.95,332.47 C 251.38,334.02 254.93,335.48 258.62,336.79 C 262.32,338.10 266.13,339.30 270.11,340.32 C 274.09,341.34 280.44,342.46 282.50,342.89 Z"/><path d="M 117.50,342.89 C 115.77,340.15 110.21,332.00 107.14,326.42 C 104.07,320.83 101.36,315.09 99.08,309.38 C 96.80,303.66 94.91,297.85 93.44,292.15 C 91.97,286.44 90.91,280.70 90.25,275.14 C 89.59,269.57 89.35,264.04 89.47,258.75 C 89.59,253.45 90.12,248.27 90.97,243.37 C 91.82,238.47 93.05,233.74 94.55,229.35 C 96.04,224.95 97.89,220.79 99.94,216.99 C 101.99,213.18 104.34,209.67 106.83,206.52 C 109.32,203.37 112.06,200.55 114.87,198.09 C 117.68,195.64 120.67,193.54 123.68,191.79 C 126.69,190.05 129.82,188.67 132.90,187.61 C 135.99,186.55 139.14,185.86 142.19,185.46 C 145.25,185.06 148.31,185.00 151.24,185.20 C 154.18,185.39 157.06,185.90 159.80,186.62 C 162.54,187.34 166.35,189.01 167.66,189.49 C 166.06,190.28 161.13,192.41 158.03,194.22 C 154.93,196.03 151.91,198.11 149.05,200.35 C 146.19,202.58 143.45,205.05 140.88,207.64 C 138.32,210.23 135.90,213.02 133.64,215.88 C 131.39,218.75 129.30,221.77 127.37,224.85 C 125.44,227.92 123.68,231.11 122.08,234.34 C 120.47,237.57 119.03,240.87 117.73,244.20 C 116.43,247.54 115.29,250.92 114.28,254.33 C 113.27,257.74 112.40,261.18 111.67,264.65 C 110.93,268.11 110.33,271.60 109.86,275.13 C 109.39,278.65 109.05,282.19 108.84,285.78 C 108.64,289.37 108.55,292.98 108.62,296.64 C 108.69,300.31 108.88,304.00 109.26,307.76 C 109.63,311.51 110.13,315.31 110.85,319.16 C 111.56,323.02 112.43,326.93 113.54,330.88 C 114.65,334.84 116.84,340.89 117.50,342.89 Z"/><path d="M 35.00,200.00 C 36.51,197.13 40.78,188.24 44.09,182.79 C 47.39,177.33 51.01,172.12 54.82,167.29 C 58.62,162.45 62.71,157.92 66.92,153.79 C 71.12,149.66 75.57,145.88 80.06,142.52 C 84.55,139.17 89.21,136.20 93.86,133.65 C 98.50,131.11 103.26,128.98 107.93,127.26 C 112.59,125.54 117.30,124.25 121.86,123.35 C 126.41,122.45 130.94,121.97 135.26,121.84 C 139.58,121.71 143.80,121.99 147.77,122.57 C 151.74,123.15 155.56,124.12 159.08,125.32 C 162.61,126.53 165.93,128.07 168.95,129.80 C 171.96,131.53 174.72,133.55 177.18,135.70 C 179.64,137.84 181.81,140.22 183.69,142.67 C 185.57,145.11 187.14,147.74 188.44,150.38 C 189.74,153.01 190.74,155.77 191.49,158.50 C 192.24,161.22 192.69,165.37 192.93,166.74 C 191.45,165.75 187.14,162.54 184.02,160.76 C 180.90,158.98 177.59,157.40 174.22,156.05 C 170.86,154.69 167.35,153.56 163.82,152.63 C 160.30,151.70 156.67,150.99 153.07,150.48 C 149.46,149.96 145.80,149.66 142.17,149.53 C 138.54,149.39 134.90,149.47 131.30,149.69 C 127.70,149.91 124.12,150.31 120.58,150.85 C 117.05,151.39 113.54,152.10 110.09,152.93 C 106.63,153.75 103.22,154.73 99.85,155.83 C 96.48,156.92 93.16,158.15 89.87,159.50 C 86.58,160.86 83.34,162.33 80.13,163.95 C 76.92,165.56 73.75,167.29 70.61,169.19 C 67.48,171.08 64.37,173.09 61.31,175.29 C 58.24,177.49 55.21,179.83 52.23,182.37 C 49.24,184.92 46.29,187.62 43.42,190.56 C 40.55,193.50 36.40,198.43 35.00,200.00 Z"/><path d="M 117.50,57.11 C 120.74,56.98 130.58,56.23 136.95,56.37 C 143.32,56.50 149.65,57.03 155.74,57.91 C 161.83,58.79 167.80,60.06 173.48,61.64 C 179.16,63.22 184.65,65.18 189.80,67.39 C 194.96,69.60 199.86,72.15 204.39,74.90 C 208.91,77.66 213.14,80.71 216.96,83.89 C 220.78,87.08 224.25,90.51 227.31,94.00 C 230.37,97.50 233.05,101.18 235.32,104.85 C 237.59,108.53 239.46,112.33 240.94,116.06 C 242.42,119.78 243.50,123.57 244.22,127.23 C 244.94,130.88 245.26,134.53 245.27,138.01 C 245.28,141.48 244.91,144.89 244.28,148.09 C 243.65,151.29 242.68,154.36 241.50,157.21 C 240.31,160.06 238.83,162.73 237.20,165.18 C 235.56,167.62 233.68,169.86 231.69,171.88 C 229.70,173.89 226.34,176.35 225.27,177.25 C 225.39,175.46 226.01,170.13 225.99,166.54 C 225.98,162.95 225.69,159.29 225.18,155.70 C 224.67,152.11 223.90,148.50 222.94,144.98 C 221.98,141.46 220.78,137.97 219.42,134.59 C 218.07,131.21 216.50,127.89 214.80,124.68 C 213.10,121.47 211.21,118.35 209.22,115.35 C 207.23,112.34 205.09,109.44 202.85,106.65 C 200.62,103.86 198.26,101.17 195.81,98.60 C 193.37,96.02 190.82,93.55 188.18,91.18 C 185.55,88.81 182.82,86.55 180.01,84.38 C 177.19,82.21 174.29,80.14 171.29,78.16 C 168.29,76.19 165.20,74.31 161.99,72.54 C 158.79,70.77 155.49,69.09 152.05,67.53 C 148.62,65.98 145.07,64.52 141.38,63.21 C 137.68,61.90 133.87,60.70 129.89,59.68 C 125.91,58.66 119.56,57.54 117.50,57.11 Z"/><path d="M 282.50,57.11 C 284.23,59.85 289.79,68.00 292.86,73.58 C 295.93,79.17 298.64,84.91 300.92,90.62 C 303.20,96.34 305.09,102.15 306.56,107.85 C 308.03,113.56 309.09,119.30 309.75,124.86 C 310.41,130.43 310.65,135.96 310.53,141.25 C 310.41,146.55 309.88,151.73 309.03,156.63 C 308.18,161.53 306.95,166.26 305.45,170.65 C 303.96,175.05 302.11,179.21 300.06,183.01 C 298.01,186.82 295.66,190.33 293.17,193.48 C 290.68,196.63 287.94,199.45 285.13,201.91 C 282.32,204.36 279.33,206.46 276.32,208.21 C 273.31,209.95 270.18,211.33 267.10,212.39 C 264.01,213.45 260.86,214.14 257.81,214.54 C 254.75,214.94 251.69,215.00 248.76,214.80 C 245.82,214.61 242.94,214.10 240.20,213.38 C 237.46,212.66 233.65,210.99 232.34,210.51 C 233.94,209.72 238.87,207.59 241.97,205.78 C 245.07,203.97 248.09,201.89 250.95,199.65 C 253.81,197.42 256.55,194.95 259.12,192.36 C 261.68,189.77 264.10,186.98 266.36,184.12 C 268.61,181.25 270.70,178.23 272.63,175.15 C 274.56,172.08 276.32,168.89 277.92,165.66 C 279.53,162.43 280.97,159.13 282.27,155.80 C 283.57,152.46 284.71,149.08 285.72,145.67 C 286.73,142.26 287.60,138.82 288.33,135.35 C 289.07,131.89 289.67,128.40 290.14,124.87 C 290.61,121.35 290.95,117.81 291.16,114.22 C 291.36,110.63 291.45,107.02 291.38,103.36 C 291.31,99.69 291.12,96.00 290.74,92.24 C 290.37,88.49 289.87,84.69 289.15,80.84 C 288.44,76.98 287.57,73.07 286.46,69.12 C 285.35,65.16 283.16,59.11 282.50,57.11 Z"/></g>
</svg>
