<svg width="1000" height="500" viewBox="0 0 1000 500" fill="none" xmlns="http://www.w3.org/2000/svg">
<g clip-path="url(#clip0_124_2)">
<rect width="1000" height="500" rx="53" fill="white"/>
<path d="M103.72 284.835V316.25L147.976 284.89L148.054 284.835H165.466L164.702 285.379L109.394 324.8L164.704 364.764L165.456 365.307H148.052L147.973 365.25L103.72 333.175V365.307H92.6201V284.835H103.72Z" fill="#282828" stroke="#282828" stroke-width="0.6"/>
<path d="M194.658 284.664V299.455C202.684 291.546 214.301 286.656 227.327 286.656C251.6 286.656 271.097 303.595 271.097 324.447C271.096 345.3 251.389 362.238 227.327 362.238C214.301 362.238 202.684 357.347 194.658 349.438V404.257H183.559V284.664H194.658ZM227.327 296.312C209.18 296.312 194.658 308.896 194.658 324.447C194.658 339.998 209.18 352.582 227.327 352.582C245.474 352.582 259.997 339.998 259.997 324.447C259.997 308.896 245.474 296.312 227.327 296.312Z" fill="#282828" stroke="#282828" stroke-width="0.6"/>
<path d="M661.168 283.751C674.471 283.751 686.306 288.849 694.344 296.874C696.351 298.777 697.972 301.005 699.388 303.236C700.807 301.02 702.428 298.964 704.435 297.232C712.473 289.21 724.306 284.114 737.607 284.114C750.911 284.114 762.747 289.213 770.786 297.239L771.412 297.861C777.795 304.35 781.376 312.692 781.376 321.723V365.128H770.277V321.723C770.277 306.352 755.753 293.588 737.607 293.588C719.671 293.588 705.145 306.172 704.938 321.546V365.31H693.838V321.542C693.838 305.991 679.316 293.407 661.168 293.407C643.021 293.407 628.5 305.991 628.5 321.542V365.31H617.4V284.838H628.5V296.381C636.524 288.643 648.141 283.752 661.168 283.751Z" fill="#282828" stroke="#282828" stroke-width="0.6"/>
<path d="M449.286 283.933C464.698 283.933 478.641 290.487 487.31 300.335L487.546 300.603L487.241 300.789L478.631 306.041L478.417 306.172L478.25 305.983C471.591 298.445 461.174 293.588 449.286 293.588C429.039 293.588 412.627 307.802 412.626 325.164C412.626 342.526 429.039 356.74 449.286 356.74C460.965 356.74 471.591 351.883 478.25 344.345L478.417 344.156L478.631 344.287L487.241 349.54L487.543 349.725L487.312 349.992C478.641 360.025 464.695 366.396 449.286 366.396C422.914 366.396 401.527 348.009 401.527 325.164C401.527 302.319 422.914 283.933 449.286 283.933Z" fill="#282828" stroke="#282828" stroke-width="0.6"/>
<path d="M382.805 285.016V365.488H371.705V351.247C363.045 359.88 350.382 365.307 336.306 365.307C310.774 365.307 289.807 347.282 289.807 325.162C289.807 303.041 310.774 285.016 336.306 285.016C350.578 285.016 363.241 290.436 371.705 299.063V285.135H372.005V285.016H382.805ZM336.306 294.491C316.689 294.491 300.906 308.162 300.906 324.981C300.906 341.8 316.689 355.47 336.306 355.47C355.714 355.47 371.705 341.799 371.705 324.981C371.705 308.162 355.923 294.491 336.306 294.491Z" fill="#282828" stroke="#282828" stroke-width="0.6"/>
<path d="M552.677 368.235C526.219 368.235 504.572 349.293 504.572 326.143C504.572 302.993 526.219 284.051 552.677 284.051C579.134 284.051 600.782 302.993 600.782 326.143C600.782 349.293 579.134 368.235 552.677 368.235Z" fill="#D4001C"/>
<path d="M907.572 284.839V365.311H896.472V284.839H907.572Z" fill="#282828" stroke="#282828" stroke-width="0.6"/>
<path d="M840.714 304.637C824.457 304.637 811.195 316.134 811.195 330.055C811.195 343.976 824.457 355.474 840.714 355.474C856.965 355.473 870.024 343.981 870.234 330.055L870.224 329.404C869.819 315.777 856.717 304.637 840.714 304.637ZM881.333 330.055C881.333 349.459 863.096 365.129 840.714 365.129C828.943 365.129 818.575 360.948 811.195 354.11V365.311H800.095V284.839H811.195V306.181C818.585 299.342 829.149 295.162 840.714 295.162C862.887 295.162 881.121 310.832 881.333 330.052V330.055Z" fill="#282828" stroke="#282828" stroke-width="0.6"/>
<path d="M10.7686 124.742V168.743C10.7686 184.248 25.2483 196.795 43.3418 196.795C61.4351 196.795 75.9141 184.248 75.9141 168.743V124.742H86.9824V204.979H75.9141V193.831C67.9127 201.546 56.3306 206.424 43.3418 206.424C20.6162 206.424 1.82271 191.359 -0.0869141 172.216C-0.29982 171.102 -0.299805 169.815 -0.299805 168.743V124.742H10.7686Z" fill="#282828" stroke="#282828" stroke-width="0.6"/>
<path d="M901.265 124.742V205.16H890.197V194.011C882.195 201.727 870.613 206.604 857.625 206.604C834.899 206.604 816.105 191.539 814.196 172.396C813.983 171.283 813.983 169.995 813.983 168.924V124.923H825.051V168.924C825.051 184.429 839.531 196.975 857.625 196.975C875.718 196.975 890.197 184.429 890.197 168.924V124.742H901.265Z" fill="#282828" stroke="#282828" stroke-width="0.6"/>
<path d="M0.390625 170.21C0.395146 170.259 0.398737 170.308 0.40332 170.358C0.455599 170.921 0.50974 171.521 0.509766 172.168L-0.0898438 172.187L-0.208008 170.25C-0.254836 169.745 -0.299805 169.242 -0.299805 168.738L0.299805 168.719L0.390625 170.21Z" fill="#282828" stroke="#282828" stroke-width="0.6"/>
<path d="M297.215 124.923V207.398C296.584 226.465 279.405 242.033 257.853 243.779V243.985H237.99V234.356H253.575C271.668 234.356 286.147 221.809 286.147 206.304V189.858C278.146 197.574 266.563 202.451 253.575 202.451C229.583 202.451 209.933 185.563 209.933 164.77C209.933 143.978 229.583 127.09 253.575 127.09C266.563 127.09 278.146 131.966 286.147 139.681V125.042H286.447V124.923H297.215ZM253.575 136.538C235.483 136.538 221.001 149.264 221.001 164.59C221.001 180.095 235.481 192.641 253.575 192.641C271.46 192.641 286.147 180.093 286.147 164.59C286.147 149.085 271.668 136.538 253.575 136.538Z" fill="#282828" stroke="#282828" stroke-width="0.6"/>
<path d="M719.091 124.742V139.489C727.093 131.604 738.677 126.728 751.664 126.728C775.655 126.728 795.305 143.617 795.305 164.409C795.305 185.201 775.656 202.089 751.664 202.09C738.676 202.09 727.093 197.214 719.091 189.328V243.985H708.022V124.742H719.091ZM751.664 136.357C733.571 136.357 719.091 148.904 719.091 164.409C719.091 179.914 733.571 192.461 751.664 192.461C769.757 192.46 784.236 179.914 784.236 164.409C784.236 148.904 769.757 136.357 751.664 136.357Z" fill="#282828" stroke="#282828" stroke-width="0.6"/>
<path d="M569.506 123.841C582.77 123.841 594.57 128.924 602.584 136.925C604.585 138.823 606.201 141.043 607.614 143.267C609.028 141.058 610.644 139.008 612.645 137.281C620.66 129.283 632.459 124.202 645.72 124.202C658.984 124.202 670.784 129.285 678.798 137.286L679.405 137.873C685.593 144.015 689.362 152.34 689.362 161.521V204.981H678.292V161.521C678.292 146.196 663.812 133.47 645.72 133.47C627.839 133.47 613.356 146.014 613.147 161.341H613.148V205.161H602.079V161.341C602.079 145.836 587.6 133.289 569.506 133.289C551.413 133.289 536.933 145.836 536.933 161.341V205.161H525.865V124.924H536.933V136.433C544.934 128.717 556.518 123.841 569.506 123.841Z" fill="#282828" stroke="#282828" stroke-width="0.6"/>
<path d="M116.713 124.742V159.956H180.184V124.742H191.252V204.979H180.184V169.585H116.713V204.979H105.645V124.742H116.713Z" fill="#282828" stroke="#282828" stroke-width="0.6"/>
<path d="M326.729 124.742V164.951C326.73 180.456 341.209 193.003 359.303 193.003C377.396 193.003 391.875 180.456 391.875 164.951V125.042H392.175V124.923H402.734V207.579C402.103 226.645 384.923 242.214 363.371 243.96V244.166H343.509V234.537H359.093C368.026 234.537 376.332 231.31 382.139 226.302C387.944 221.295 391.666 214.151 391.666 206.485V190.039C383.665 197.754 372.082 202.632 359.093 202.632C336.992 202.631 318.411 188.106 315.873 169.328L315.803 168.769C315.66 167.449 315.661 166.03 315.661 164.77V124.742H326.729Z" fill="#282828" stroke="#282828" stroke-width="0.6"/>
<path d="M469.431 123.661C484.798 123.661 498.701 130.196 507.345 140.015L507.581 140.283L507.275 140.469L498.69 145.707L498.477 145.837L498.31 145.649C491.669 138.132 481.284 133.29 469.431 133.29C449.244 133.29 432.88 147.461 432.88 164.772C432.88 182.083 449.244 196.255 469.431 196.255C481.076 196.255 491.67 191.412 498.31 183.896L498.477 183.708L498.69 183.838L507.275 189.076L507.578 189.26L507.347 189.528C498.701 199.531 484.795 205.884 469.431 205.884C443.136 205.884 421.812 187.551 421.812 164.772C421.812 141.993 443.136 123.661 469.431 123.661Z" fill="#282828" stroke="#282828" stroke-width="0.6"/>
<path d="M960.219 123.841C971.548 123.841 981.875 128.01 989.231 134.656V125.044H989.531V124.924H1000.3V205.161H989.231V182.439C982.068 189.081 971.742 193.243 960.219 193.243H960.12L946.596 204.908L946.511 204.981H930.727L931.338 204.454L946.839 191.083C931.31 186.233 920.137 173.434 920.137 158.451C920.137 139.284 938.112 123.841 960.219 123.841ZM960.009 133.47C944.009 133.47 930.996 144.752 930.996 158.451C930.996 172.15 944.009 183.434 960.009 183.434C976.216 183.434 989.022 172.152 989.022 158.451C989.022 144.752 976.008 133.47 960.009 133.47Z" fill="#282828" stroke="#282828" stroke-width="0.6"/>
</g>
<defs>
<clipPath id="clip0_124_2">
<rect width="1000" height="500" rx="53" fill="white"/>
</clipPath>
</defs>
</svg>
